<mxfile host="65bd71144e">
    <diagram id="zyNBEWu_tst_YSkS_t5t" name="Page-1">
        <mxGraphModel dx="2654" dy="1251" grid="1" gridSize="10" guides="1" tooltips="1" connect="1" arrows="1" fold="1" page="1" pageScale="1" pageWidth="850" pageHeight="1100" math="0" shadow="0">
            <root>
                <mxCell id="0"/>
                <mxCell id="1" parent="0"/>
                <mxCell id="63" value="" style="whiteSpace=wrap;html=1;fillColor=#f5f5f5;strokeColor=#666666;fontColor=#333333;" vertex="1" parent="1">
                    <mxGeometry x="-850" width="2350" height="1770" as="geometry"/>
                </mxCell>
                <mxCell id="64" value="" style="rounded=0;whiteSpace=wrap;html=1;strokeColor=#090a0b;fillColor=#D3D3D3;" vertex="1" parent="1">
                    <mxGeometry x="-580" y="40" width="870" height="1010" as="geometry"/>
                </mxCell>
                <mxCell id="66" value="&lt;b style=&quot;&quot;&gt;&lt;font style=&quot;background-color: rgb(255, 255, 255); font-size: 28px;&quot; color=&quot;#000000&quot;&gt;System pour guestione un resteau&lt;/font&gt;&lt;/b&gt;" style="text;html=1;strokeColor=none;fillColor=none;align=center;verticalAlign=middle;whiteSpace=wrap;rounded=0;" vertex="1" parent="1">
                    <mxGeometry x="-480" y="80" width="550" height="30" as="geometry"/>
                </mxCell>
                <mxCell id="67" value="&lt;br&gt;&lt;font color=&quot;#000000&quot;&gt;&lt;span style=&quot;font-size: 28px; background-color: rgb(255, 255, 255);&quot;&gt;&lt;b&gt;By:BAHSI ilyas&lt;/b&gt;&lt;/span&gt;&lt;/font&gt;" style="text;html=1;strokeColor=none;fillColor=none;align=center;verticalAlign=middle;whiteSpace=wrap;rounded=0;" vertex="1" parent="1">
                    <mxGeometry x="-510" y="110" width="360" height="30" as="geometry"/>
                </mxCell>
                <mxCell id="68" value="Actor" style="shape=umlActor;verticalLabelPosition=bottom;verticalAlign=top;html=1;outlineConnect=0;strokeColor=#090a0b;fillColor=#D3D3D3;" vertex="1" parent="1">
                    <mxGeometry x="-760" y="240" width="110" height="260" as="geometry"/>
                </mxCell>
            </root>
        </mxGraphModel>
    </diagram>
</mxfile>